<svg width="78" height="25" viewBox="0 0 78 25" fill="none" xmlns="http://www.w3.org/2000/svg">
<path d="M0.213623 23.6934H9.10297C13.7762 23.6934 16.2652 20.9241 16.2652 17.1624C16.2652 13.6661 14.0607 11.5545 11.6936 11.4276V11.1968C13.8575 10.6429 15.4525 8.90054 15.4525 6.11966C15.4525 2.57722 13.1362 0.0617371 8.54421 0.0617371H0.213623V23.6934ZM4.61258 19.6086V13.3315H8.30039C10.4135 13.3315 11.7241 14.7161 11.7241 16.6662C11.7241 18.4432 10.6573 19.6086 8.19879 19.6086H4.61258ZM4.61258 9.95058V4.10035H7.95497C9.90555 4.10035 11.0129 5.2427 11.0129 6.95046C11.0129 8.81976 9.67188 9.95058 7.8737 9.95058H4.61258Z" fill="#8CB7F5"/>
<path d="M18.5182 23.6934H22.846V13.6661C22.846 11.4853 24.248 9.98519 26.1579 9.98519C26.7573 9.98519 27.5802 10.1006 27.9866 10.2506V5.88888C27.6005 5.78503 27.0621 5.7158 26.6253 5.7158C24.8779 5.7158 23.4454 6.86969 22.8765 9.06208H22.7139V5.96965H18.5182V23.6934Z" fill="#8CB7F5"/>
<path d="M33.6988 24.028C36.0049 24.028 37.4983 22.8857 38.2603 21.2356H38.3822V23.6934H42.4865V11.7391C42.4865 7.51587 39.3371 5.73888 35.8627 5.73888C32.1241 5.73888 29.6655 7.76972 29.0661 11.0006L33.0689 11.3699C33.3635 10.1929 34.288 9.32748 35.8424 9.32748C37.3155 9.32748 38.1587 10.1698 38.1587 11.6237V11.693C38.1587 12.8353 37.092 12.9853 34.3794 13.2853C31.291 13.6084 28.5175 14.7854 28.5175 18.7432C28.5175 22.251 30.7221 24.028 33.6988 24.028ZM34.9382 20.6356C33.6073 20.6356 32.6524 19.9317 32.6524 18.5817C32.6524 17.197 33.6581 16.5162 35.182 16.2739C36.1268 16.1239 37.671 15.87 38.1891 15.4777V17.3586C38.1891 19.2163 36.838 20.6356 34.9382 20.6356Z" fill="#8CB7F5"/>
<path d="M49.6438 13.4469C49.654 11.1622 50.8528 9.82365 52.6002 9.82365C54.3374 9.82365 55.3838 11.116 55.3736 13.2853V23.6934H59.7015V12.4084C59.7015 8.27744 57.568 5.73888 54.3171 5.73888C52.0008 5.73888 50.3245 7.03123 49.6235 9.0967H49.4406V5.96965H45.316V23.6934H49.6438V13.4469Z" fill="#8CB7F5"/>
<path d="M68.3344 23.9819C70.8539 23.9819 72.1645 22.3318 72.7639 20.8548H72.9467V23.6934H77.2136V0.0617371H72.8959V8.94669H72.7639C72.1848 7.50433 70.9352 5.73888 68.3243 5.73888C64.9006 5.73888 62.0052 8.76207 62.0052 14.8546C62.0052 20.7856 64.7787 23.9819 68.3344 23.9819ZM69.7059 20.0702C67.5826 20.0702 66.4245 17.924 66.4245 14.8315C66.4245 11.7622 67.5623 9.65056 69.7059 9.65056C71.8089 9.65056 72.9874 11.6699 72.9874 14.8315C72.9874 17.9932 71.7886 20.0702 69.7059 20.0702Z" fill="#8CB7F5"/>
</svg>
