<svg width="54" height="22" viewBox="0 0 54 22" fill="none" xmlns="http://www.w3.org/2000/svg">
<path d="M0.453857 20.8061H6.62701C9.87233 20.8061 11.6008 18.3679 11.6008 15.056C11.6008 11.9778 10.0699 10.1186 8.42605 10.0069V9.80368C9.92877 9.31603 11.0364 7.78199 11.0364 5.33361C11.0364 2.21472 9.42786 0 6.23899 0H0.453857V20.8061ZM3.50869 17.2098V11.6831H6.06966C7.53711 11.6831 8.44721 12.9022 8.44721 14.6192C8.44721 16.1837 7.70643 17.2098 5.99912 17.2098H3.50869ZM3.50869 8.70648V3.55574H5.82979C7.18436 3.55574 7.95336 4.5615 7.95336 6.06507C7.95336 7.71087 7.02209 8.70648 5.77335 8.70648H3.50869Z" fill="#8CB7F5"/>
<path d="M13.1654 20.8061H16.1708V11.9778C16.1708 10.0577 17.1444 8.73696 18.4707 8.73696C18.887 8.73696 19.4584 8.83855 19.7406 8.97062V5.13042C19.4726 5.03899 19.0986 4.97803 18.7953 4.97803C17.5818 4.97803 16.587 5.99396 16.192 7.92422H16.0791V5.20154H13.1654V20.8061Z" fill="#8CB7F5"/>
<path d="M23.7074 21.1008C25.3089 21.1008 26.346 20.095 26.8751 18.6422H26.9598V20.8061H29.81V10.2812C29.81 6.56288 27.623 4.99835 25.2101 4.99835C22.6139 4.99835 20.9066 6.78638 20.4903 9.63097L23.27 9.95607C23.4746 8.91982 24.1166 8.15788 25.196 8.15788C26.219 8.15788 26.8046 8.8995 26.8046 10.1796V10.2405C26.8046 11.2463 26.0638 11.3784 24.1801 11.6425C22.0354 11.927 20.1094 12.9632 20.1094 16.4478C20.1094 19.5362 21.6403 21.1008 23.7074 21.1008ZM24.5681 18.1139C23.6439 18.1139 22.9808 17.4942 22.9808 16.3056C22.9808 15.0865 23.6792 14.4871 24.7375 14.2737C25.3936 14.1417 26.4659 13.9182 26.8258 13.5728V15.2287C26.8258 16.8644 25.8874 18.1139 24.5681 18.1139Z" fill="#8CB7F5"/>
<path d="M34.7804 11.7847C34.7874 9.7732 35.6199 8.59473 36.8334 8.59473C38.0398 8.59473 38.7665 9.73256 38.7594 11.6425V20.8061H41.7649V10.8704C41.7649 7.23338 40.2833 4.99835 38.0257 4.99835C36.4172 4.99835 35.2531 6.13619 34.7663 7.95469H34.6393V5.20154H31.7749V20.8061H34.7804V11.7847Z" fill="#8CB7F5"/>
<path d="M47.76 21.0601C49.5096 21.0601 50.4197 19.6074 50.836 18.307H50.963V20.8061H53.9261V0H50.9277V7.82262H50.836C50.4338 6.55272 49.5661 4.99835 47.7529 4.99835C45.3754 4.99835 43.3647 7.66008 43.3647 13.0242C43.3647 18.246 45.2907 21.0601 47.76 21.0601ZM48.7124 17.6161C47.2379 17.6161 46.4336 15.7265 46.4336 13.0038C46.4336 10.3015 47.2238 8.44234 48.7124 8.44234C50.1728 8.44234 50.9912 10.2202 50.9912 13.0038C50.9912 15.7875 50.1587 17.6161 48.7124 17.6161Z" fill="#8CB7F5"/>
</svg>
