<svg width="25" height="25" viewBox="0 0 25 25" fill="none" xmlns="http://www.w3.org/2000/svg">
<path fill-rule="evenodd" clip-rule="evenodd" d="M12.5146 14.9123C13.842 14.9123 14.9185 13.8389 14.9185 12.5139C14.9185 11.1897 13.842 10.1162 12.5146 10.1162C11.1873 10.1162 10.1107 11.1897 10.1107 12.5139C10.1107 13.8389 11.1873 14.9123 12.5146 14.9123ZM15.2827 10.0578H16.9725C17.1655 10.0578 17.3225 9.90156 17.3225 9.70937V8.02266C17.3225 7.83047 17.1655 7.67422 16.9725 7.67422H15.2827C15.0897 7.67422 14.9327 7.83047 14.9327 8.02266V9.70937C14.9327 9.90156 15.0897 10.0578 15.2827 10.0578ZM18.75 17.2672C18.75 18.0859 18.0852 18.75 17.2641 18.75H7.73594C6.91562 18.75 6.25 18.0859 6.25 17.2672V7.73203C6.25 6.91328 6.91562 6.25 7.73594 6.25H17.2641C18.0852 6.25 18.75 6.91328 18.75 7.73203V17.2672ZM12.5 0C5.59609 0 0 5.59609 0 12.5C0 19.4031 5.59609 25 12.5 25C19.4039 25 25 19.4031 25 12.5C25 5.59609 19.4039 0 12.5 0ZM16.317 12.5142C16.317 14.6056 14.6116 16.308 12.5147 16.308C10.4178 16.308 8.71234 14.6056 8.71234 12.5142C8.71234 12.1673 8.75922 11.8306 8.8475 11.5111H7.67797V16.947C7.67797 17.14 7.83422 17.2963 8.02719 17.2963H17.0014C17.1952 17.2963 17.3514 17.14 17.3514 16.947V11.5111H16.1819C16.2702 11.8306 16.317 12.1673 16.317 12.5142Z" fill="white"/>
</svg>
