<svg width="25" height="25" viewBox="0 0 25 25" fill="none" xmlns="http://www.w3.org/2000/svg">
<path fill-rule="evenodd" clip-rule="evenodd" d="M18.75 18.7383H16.1602V14.6852C16.1602 13.7187 16.143 12.4758 14.8141 12.4758C13.4664 12.4758 13.2609 13.5289 13.2609 14.6164V18.7383H10.6734V10.4039H13.1562V11.5437H13.1922C13.5375 10.8883 14.3828 10.1969 15.643 10.1969C18.2656 10.1969 18.75 11.9227 18.75 14.1672V18.7383ZM7.75312 9.26562C6.92109 9.26562 6.25 8.59219 6.25 7.76328C6.25 6.93437 6.92109 6.26094 7.75312 6.26094C8.58125 6.26094 9.25391 6.93437 9.25391 7.76328C9.25391 8.59219 8.58125 9.26562 7.75312 9.26562ZM9.04844 18.7383H6.45547V10.4039H9.04844V18.7383ZM12.5 0C5.59609 0 0 5.59609 0 12.5C0 19.4031 5.59609 25 12.5 25C19.4039 25 25 19.4031 25 12.5C25 5.59609 19.4039 0 12.5 0Z" fill="white"/>
</svg>
