<svg width="25" height="25" viewBox="0 0 25 25" fill="none" xmlns="http://www.w3.org/2000/svg">
<path fill-rule="evenodd" clip-rule="evenodd" d="M15.7461 8.325L14.5695 8.32578C13.6469 8.32578 13.468 8.76406 13.468 9.40703V10.8258H15.6687L15.382 13.0484H13.468V18.75H11.1734V13.0484H9.25469V10.8258H11.1734V9.1875C11.1734 7.28516 12.3352 6.25 14.0312 6.25C14.8437 6.25 15.5422 6.31016 15.7461 6.3375V8.325ZM12.5 0C5.59688 0 0 5.59609 0 12.5C0 19.4031 5.59688 25 12.5 25C19.4039 25 25 19.4031 25 12.5C25 5.59609 19.4039 0 12.5 0Z" fill="white"/>
</svg>
