<svg width="25" height="26" viewBox="0 0 25 26" fill="none" xmlns="http://www.w3.org/2000/svg">
<path d="M22.4881 9.91228H17.5955L13.1217 3.06039C12.9277 2.76793 12.6008 2.6217 12.274 2.6217C11.9471 2.6217 11.6203 2.76793 11.4262 3.07084L6.95242 9.91228H2.05986C1.49809 9.91228 1.03845 10.3823 1.03845 10.9568C1.03845 11.0508 1.04867 11.1448 1.07931 11.2388L3.67369 20.9213C3.90862 21.7986 4.6951 22.4462 5.6348 22.4462H18.9131C19.8528 22.4462 20.6393 21.7986 20.8845 20.9213L23.4788 11.2388L23.5095 10.9568C23.5095 10.3823 23.0499 9.91228 22.4881 9.91228ZM12.274 5.5254L15.1339 9.91228H9.41402L12.274 5.5254ZM18.9131 20.3572L5.64502 20.3677L3.39791 12.0013H21.1602L18.9131 20.3572ZM12.274 14.0903C11.1504 14.0903 10.2311 15.0303 10.2311 16.1793C10.2311 17.3282 11.1504 18.2682 12.274 18.2682C13.3975 18.2682 14.3168 17.3282 14.3168 16.1793C14.3168 15.0303 13.3975 14.0903 12.274 14.0903Z" fill="#8B96A5"/>
</svg>
