<svg width="32" height="37" viewBox="0 0 32 37" fill="none" xmlns="http://www.w3.org/2000/svg">
<rect width="32" height="36.3457" transform="translate(0 0.40741)" fill="#FCB76C"/>
<path fill-rule="evenodd" clip-rule="evenodd" d="M23.5 27.0828H20.3922V21.5585C20.3922 20.2414 20.3716 18.5472 18.7769 18.5472C17.1597 18.5472 16.9131 19.9826 16.9131 21.4648V27.0828H13.8081V15.7233H16.7875V17.2769H16.8306C17.245 16.3835 18.2594 15.4412 19.7716 15.4412C22.9187 15.4412 23.5 17.7933 23.5 20.8526V27.0828ZM10.3038 14.1719C9.30531 14.1719 8.5 13.254 8.5 12.1243C8.5 10.9945 9.30531 10.0766 10.3038 10.0766C11.2975 10.0766 12.1047 10.9945 12.1047 12.1243C12.1047 13.254 11.2975 14.1719 10.3038 14.1719ZM11.8581 27.0828H8.74656V15.7233H11.8581V27.0828ZM16 1.54321C7.71531 1.54321 1 9.17048 1 18.5802C1 27.9889 7.71531 35.6173 16 35.6173C24.2847 35.6173 31 27.9889 31 18.5802C31 9.17048 24.2847 1.54321 16 1.54321Z" fill="white"/>
</svg>
