<svg width="32" height="37" viewBox="0 0 32 37" fill="none" xmlns="http://www.w3.org/2000/svg">
<rect width="32" height="36.3457" transform="translate(0 0.40741)" fill="#FCB76C"/>
<path fill-rule="evenodd" clip-rule="evenodd" d="M21.9644 15.1058C21.97 15.2559 21.9738 15.406 21.9738 15.5583C21.9738 20.1764 18.8781 25.5026 13.2175 25.5026C11.4794 25.5026 9.86219 24.9244 8.5 23.9331C8.74094 23.965 8.98562 23.981 9.23406 23.981C10.6759 23.981 12.0025 23.423 13.0562 22.4849C11.7091 22.4572 10.5728 21.4467 10.1809 20.0582C10.3694 20.0987 10.5616 20.12 10.7603 20.12C11.0406 20.12 11.3125 20.0774 11.5712 19.9975C10.1631 19.677 9.10281 18.264 9.10281 16.5709C9.10281 16.556 9.10281 16.5411 9.10281 16.5262C9.51719 16.7882 9.9925 16.9458 10.4969 16.9639C9.67094 16.3367 9.12719 15.2665 9.12719 14.0548C9.12719 13.4138 9.27906 12.8132 9.54437 12.2968C11.0622 14.4115 13.33 15.8032 15.8875 15.9491C15.835 15.6935 15.8078 15.4263 15.8078 15.1526C15.8078 13.2221 17.1859 11.6568 18.8847 11.6568C19.7706 11.6568 20.5703 12.0817 21.1309 12.761C21.8322 12.6045 22.4912 12.3138 23.0856 11.9134C22.8559 12.7291 22.3675 13.4138 21.7328 13.8471C22.3553 13.762 22.9478 13.5746 23.5 13.2966C23.0875 13.9973 22.5653 14.6127 21.9644 15.1058ZM16 1.54321C7.71531 1.54321 1 9.17048 1 18.5802C1 27.9889 7.71531 35.6173 16 35.6173C24.2847 35.6173 31 27.9889 31 18.5802C31 9.17048 24.2847 1.54321 16 1.54321Z" fill="white"/>
</svg>
