<svg width="32" height="37" viewBox="0 0 32 37" fill="none" xmlns="http://www.w3.org/2000/svg">
<rect width="32" height="36.3457" transform="translate(0 0.40741)" fill="#FCB76C"/>
<path fill-rule="evenodd" clip-rule="evenodd" d="M23.5 19.2234C23.5 20.6023 23.35 21.9813 23.35 21.9813C23.35 21.9813 23.2038 23.1547 22.7537 23.6722C22.1838 24.3505 21.5444 24.3537 21.2509 24.3931C19.1519 24.5656 16 24.5709 16 24.5709C16 24.5709 12.1 24.5304 10.9 24.4005C10.5662 24.3292 9.81625 24.3505 9.24625 23.6722C8.79625 23.1547 8.65 21.9813 8.65 21.9813C8.65 21.9813 8.5 20.6023 8.5 19.2234V17.9307C8.5 16.5518 8.65 15.1739 8.65 15.1739C8.65 15.1739 8.79625 13.9994 9.24625 13.4819C9.81625 12.8036 10.4556 12.8004 10.7491 12.761C12.8481 12.5885 15.9972 12.5885 15.9972 12.5885H16.0028C16.0028 12.5885 19.1519 12.5885 21.2509 12.761C21.5444 12.8004 22.1838 12.8036 22.7537 13.4819C23.2038 13.9994 23.35 15.1739 23.35 15.1739C23.35 15.1739 23.5 16.5518 23.5 17.9307V19.2234ZM16 1.54321C7.71531 1.54321 1 9.17048 1 18.5802C1 27.9889 7.71531 35.6173 16 35.6173C24.2847 35.6173 31 27.9889 31 18.5802C31 9.17048 24.2847 1.54321 16 1.54321ZM14.4514 20.7897L18.5042 18.4046L14.4505 16.0023L14.4514 20.7897Z" fill="white"/>
</svg>
