<svg width="32" height="37" viewBox="0 0 32 37" fill="none" xmlns="http://www.w3.org/2000/svg">
<rect width="32" height="36.3457" transform="translate(0 0.40741)" fill="#FCB76C"/>
<path fill-rule="evenodd" clip-rule="evenodd" d="M19.8953 12.8899L18.4834 12.8909C17.3762 12.8909 17.1616 13.4883 17.1616 14.3646V16.2983H19.8025L19.4584 19.3277H17.1616V27.0988H14.4081V19.3277H12.1056V16.2983H14.4081V14.0654C14.4081 11.4726 15.8022 10.0617 17.8375 10.0617C18.8125 10.0617 19.6506 10.1437 19.8953 10.181V12.8899ZM16 1.54321C7.71625 1.54321 1 9.17048 1 18.5802C1 27.9889 7.71625 35.6173 16 35.6173C24.2847 35.6173 31 27.9889 31 18.5802C31 9.17048 24.2847 1.54321 16 1.54321Z" fill="white"/>
</svg>
