<svg width="32" height="37" viewBox="0 0 32 37" fill="none" xmlns="http://www.w3.org/2000/svg">
<rect width="32" height="36.3457" transform="translate(0 0.40741)" fill="#FCB76C"/>
<path fill-rule="evenodd" clip-rule="evenodd" d="M16.0175 21.8682C17.6103 21.8682 18.9022 20.4051 18.9022 18.5992C18.9022 16.7943 17.6103 15.3313 16.0175 15.3313C14.4247 15.3313 13.1328 16.7943 13.1328 18.5992C13.1328 20.4051 14.4247 21.8682 16.0175 21.8682ZM19.3392 15.2516H21.367C21.5986 15.2516 21.787 15.0387 21.787 14.7767V12.4778C21.787 12.2158 21.5986 12.0029 21.367 12.0029H19.3392C19.1076 12.0029 18.9192 12.2158 18.9192 12.4778V14.7767C18.9192 15.0387 19.1076 15.2516 19.3392 15.2516ZM23.5 25.0777C23.5 26.1937 22.7022 27.0988 21.7169 27.0988H10.2831C9.29875 27.0988 8.5 26.1937 8.5 25.0777V12.0817C8.5 10.9658 9.29875 10.0617 10.2831 10.0617H21.7169C22.7022 10.0617 23.5 10.9658 23.5 12.0817V25.0777ZM16 1.54321C7.71531 1.54321 1 9.17048 1 18.5802C1 27.9889 7.71531 35.6173 16 35.6173C24.2847 35.6173 31 27.9889 31 18.5802C31 9.17048 24.2847 1.54321 16 1.54321ZM20.5804 18.5996C20.5804 21.4501 18.5339 23.7704 16.0176 23.7704C13.5014 23.7704 11.4548 21.4501 11.4548 18.5996C11.4548 18.1268 11.5111 17.6679 11.617 17.2324H10.2136V24.6414C10.2136 24.9044 10.4011 25.1174 10.6326 25.1174H21.4017C21.6342 25.1174 21.8217 24.9044 21.8217 24.6414V17.2324H20.4183C20.5242 17.6679 20.5804 18.1268 20.5804 18.5996Z" fill="white"/>
</svg>
