<svg width="104" height="29" viewBox="0 0 104 29" fill="none" xmlns="http://www.w3.org/2000/svg">
<path d="M28.1173 2.95733H25.5787V3.80676H27.3793C27.2902 4.99803 26.4113 5.50605 25.5818 5.50605C24.5204 5.50605 23.5941 4.56437 23.5941 3.24444C23.5941 1.95872 24.477 0.968568 25.584 0.968568C26.4383 0.968568 26.9415 1.58241 26.9415 1.58241L27.4689 0.966491C27.4689 0.966491 26.7919 0.116638 25.5571 0.116638C23.9847 0.116638 22.7684 1.61302 22.7684 3.22921C22.7684 4.81312 23.9126 6.35729 25.5971 6.35729C27.0788 6.35729 28.1634 5.21298 28.1634 3.52062C28.1634 3.16356 28.1173 2.95733 28.1173 2.95733Z" fill="white"/>
<path d="M28.5957 16.648H34.1741C34.178 16.6659 34.275 17.1169 34.275 17.8856C34.275 21.6044 31.8918 24.1193 28.6362 24.1193C24.9344 24.1193 22.4202 20.7258 22.4202 17.2457C22.4202 13.6941 25.0931 10.4059 28.5481 10.406C31.2614 10.406 32.7492 12.2734 32.7492 12.2734L31.59 13.6269C31.59 13.6269 30.4842 12.2777 28.6073 12.2777C26.1749 12.2777 24.2348 14.4536 24.2348 17.2789C24.2348 20.179 26.27 22.2484 28.6023 22.2484C30.4252 22.2484 32.3565 21.1321 32.552 18.5146H28.5957V16.648Z" fill="white"/>
<path fill-rule="evenodd" clip-rule="evenodd" d="M34.9867 19.6677C34.9867 17.3141 36.6271 15.2963 38.9162 15.2963C40.7978 15.2963 42.8382 16.7997 42.8382 19.7189C42.8382 22.2658 41.0841 24.1113 38.9429 24.1113C36.5777 24.1113 34.9867 22.0559 34.9867 19.6677ZM41.1313 19.7073C41.1313 18.0537 40.0646 17.0274 38.9389 17.0274C37.6741 17.0274 36.702 18.1677 36.702 19.6944C36.702 21.2546 37.6862 22.3812 38.9337 22.3812C40.069 22.3812 41.1313 21.3257 41.1313 19.7073Z" fill="white"/>
<path fill-rule="evenodd" clip-rule="evenodd" d="M47.5551 15.2963C45.266 15.2963 43.6255 17.3141 43.6255 19.6677C43.6255 22.0559 45.2166 24.1113 47.582 24.1113C49.723 24.1113 51.4772 22.2658 51.4772 19.7189C51.4772 16.7997 49.4368 15.2963 47.5551 15.2963ZM47.5778 17.0274C48.7034 17.0274 49.7702 18.0537 49.7702 19.7073C49.7702 21.3257 48.7079 22.3812 47.5725 22.3812C46.3252 22.3812 45.341 21.2546 45.341 19.6944C45.341 18.1677 46.3129 17.0274 47.5778 17.0274Z" fill="white"/>
<path fill-rule="evenodd" clip-rule="evenodd" d="M52.2641 19.7048C52.2641 17.3759 53.9158 15.301 56.0167 15.301C56.9315 15.301 57.6205 15.7001 58.1244 16.3124V15.5659H59.7632V23.4858C59.7632 26.5975 58.1711 28.0809 56.082 28.0809C54.1722 28.0809 53.0994 26.7568 52.5663 25.4855L54.0686 24.7773C54.2767 25.3453 54.8756 26.3468 56.0695 26.3468C57.3055 26.3468 58.1243 25.4358 58.1243 23.9151V23.046C57.687 23.6183 57.0947 24.1171 55.9805 24.1171C54.1788 24.1171 52.2641 22.3578 52.2641 19.7048ZM56.1688 17.0286C57.199 17.0286 58.2568 18.0205 58.2568 19.7142C58.2568 21.4358 57.2012 22.3845 56.1461 22.3845C55.0261 22.3845 53.9838 21.3591 53.9838 19.7306C53.9838 18.0385 55.0663 17.0286 56.1688 17.0286Z" fill="white"/>
<path fill-rule="evenodd" clip-rule="evenodd" d="M63.7486 19.6921C63.7486 17.0684 65.4125 15.2903 67.3944 15.2903C68.9575 15.2903 70.1387 16.4659 70.645 17.8732L70.9172 18.5919L65.6759 21.0441C65.989 21.7013 66.4943 22.3798 67.593 22.38C68.5712 22.38 69.1575 21.7803 69.5082 21.1666L70.8593 22.1804C70.2535 23.0945 69.2386 24.1146 67.5848 24.1146C65.6033 24.1146 63.7486 22.4682 63.7486 19.6921ZM67.4628 16.9856C68.177 16.9856 68.6909 17.4135 68.9092 17.927L65.409 19.5765C65.2581 18.2994 66.3313 16.9856 67.4628 16.9856Z" fill="white"/>
<path d="M62.7991 23.8529H61.0775V10.8618H62.7991V23.8529Z" fill="white"/>
<path d="M84.1596 23.8529H85.8812V10.8618H84.1596V23.8529Z" fill="white"/>
<path fill-rule="evenodd" clip-rule="evenodd" d="M76.7517 23.8529H75.0301V10.8618L79.1945 10.8617C81.2132 10.8617 82.8648 12.724 82.8648 15.0003C82.8648 17.2764 81.2132 19.1387 79.1945 19.1387H76.7517V23.8529ZM76.7516 17.1975V12.8029H79.1945C80.263 12.8029 81.1433 13.7954 81.1433 15.0003C81.1433 16.205 80.263 17.1975 79.1945 17.1975H76.7516Z" fill="white"/>
<path d="M98.5919 28.0809L103.577 15.2906H101.696L99.4406 21.0785L97.1849 15.2906H95.3046L98.5004 23.491L96.7116 28.0809H98.5919Z" fill="white"/>
<path fill-rule="evenodd" clip-rule="evenodd" d="M92.9271 23.8529H94.6487V19.1806C94.9181 14.3616 89.4999 13.2283 87.4497 16.7022L88.8351 17.7504C89.8375 15.7742 92.698 16.2289 92.8861 18.3468C92.0264 18.09 91.0977 17.9038 90.2491 18.0007C88.9247 18.1518 87.7907 19.1002 87.6105 20.6537C87.5131 21.4931 87.6793 22.5279 88.199 23.1585C89.0089 24.141 90.3387 24.2734 91.4311 23.9377C92.0462 23.7487 92.5304 23.3366 92.9271 22.8043V23.8529ZM91.0219 22.2444C91.9641 21.955 92.7069 21.1779 92.9271 20.0976C92.4454 19.9217 92.0022 19.7797 91.4943 19.7106C88.5359 19.2091 89.0312 22.8563 91.0219 22.2444Z" fill="white"/>
<path d="M39.2771 6.23624H38.4937V0.324115H39.2771V6.23624Z" fill="white"/>
<path d="M34.1061 6.23624H34.8896V1.20749H36.1757V0.324115H32.82V1.20749H34.1061V6.23624Z" fill="white"/>
<path d="M31.994 6.23624H28.9893V0.324115H31.994V1.20749H29.7729V2.83849H31.7266V3.72186H29.7729V5.35273H31.994V6.23624Z" fill="white"/>
<path d="M41.9844 6.23624V1.20749H43.2705V0.324115H39.915V1.20749H41.201V6.23624H41.9844Z" fill="white"/>
<path fill-rule="evenodd" clip-rule="evenodd" d="M45.2864 3.22921C45.2864 1.61288 46.5028 0.116638 48.0751 0.116638C49.6475 0.116638 50.8639 1.61288 50.8639 3.22921C50.8639 4.80038 49.7378 6.3325 48.0751 6.35674C46.4125 6.3325 45.2864 4.80038 45.2864 3.22921ZM48.0751 5.50564C47.0241 5.4911 46.1122 4.55412 46.1122 3.24444C46.1122 1.96925 46.9808 0.984773 48.0751 0.968845C49.1695 0.984773 50.0381 1.96925 50.0381 3.24444C50.0381 4.55412 49.1262 5.4911 48.0751 5.50564Z" fill="white"/>
<path d="M52.43 6.23624H51.6464V0.324115H52.43L54.9449 4.62836V0.324115H55.7285V6.23624H54.9463L52.43 1.92978V6.23624Z" fill="white"/>
<path d="M1.37576 7.49094L10.2279 17.4576L1.41826 27.5116C1.16118 27.3274 1.02336 26.9285 1.02103 26.4133L0.941187 8.5689C0.93873 8.00464 1.12077 7.66046 1.37576 7.49094Z" fill="white"/>
<path d="M2.38273 7.50437L13.147 14.1263L10.5941 17.0396L2.00711 7.37127C2.13719 7.39052 2.26776 7.4336 2.38273 7.50437Z" fill="white"/>
<path d="M13.6257 20.4528L10.9628 17.4547L13.623 14.4191L17.2863 16.6724C18.1887 17.2273 17.7271 17.9214 17.2863 18.1935L13.6257 20.4528Z" fill="white"/>
<path d="M2.38273 27.3911C2.30141 27.4424 2.22305 27.4825 2.148 27.5144L10.5967 17.8727L13.1492 20.7466L2.38273 27.3911Z" fill="white"/>
</svg>
