<svg width="103" height="30" viewBox="0 0 103 30" fill="none" xmlns="http://www.w3.org/2000/svg">
<path d="M14.9292 0.326508C15.0796 1.86783 14.5379 3.38667 13.7462 4.50308C12.9201 5.60213 11.5985 6.44276 10.3113 6.33448C10.1428 4.85139 10.795 3.27432 11.5251 2.31214C12.3503 1.22025 13.7834 0.383707 14.9292 0.326508Z" fill="white"/>
<path d="M19.1431 9.21783C18.9994 9.31451 16.6188 10.9167 16.6449 14.1841C16.6757 18.1298 19.7066 19.4342 19.7429 19.4474C19.7248 19.5394 19.2682 21.332 18.1314 23.148C17.1821 24.7496 16.1875 26.3155 14.6077 26.342C13.8564 26.362 13.3491 26.1186 12.8205 25.8648C12.2694 25.6003 11.6951 25.3247 10.7968 25.3247C9.84448 25.3247 9.24467 25.6094 8.6663 25.884C8.16585 26.1216 7.68145 26.3516 6.99861 26.3829C5.49401 26.4452 4.34449 24.6751 3.36075 23.0878C1.39417 19.8489 -0.136702 13.9604 1.91593 9.95337C2.91055 7.98816 4.72404 6.72262 6.66254 6.68892C7.51617 6.66924 8.33489 7.04019 9.05261 7.36537C9.60147 7.61405 10.0913 7.83597 10.4924 7.83597C10.8448 7.83597 11.3208 7.62292 11.8757 7.37462C12.7501 6.9833 13.8201 6.50441 14.9102 6.63376C15.6557 6.65827 17.7772 6.96572 19.1459 9.2159L19.1431 9.21783Z" fill="white"/>
<path fill-rule="evenodd" clip-rule="evenodd" d="M30.0404 1.2062H27.9139V8.34015H30.0404C31.9213 8.34015 33.0262 7.02015 33.0262 4.7707C33.0262 2.5262 31.9169 1.2062 30.0404 1.2062ZM28.7031 2.0071V7.53925H29.9877C31.4215 7.53925 32.2194 6.55048 32.2194 4.78059C32.2194 2.99587 31.4258 2.0071 29.9877 2.0071H28.7031Z" fill="white"/>
<path fill-rule="evenodd" clip-rule="evenodd" d="M36.0745 8.42914C34.8118 8.42914 33.9612 7.40577 33.9612 5.76936C33.9612 4.12801 34.8118 3.10958 36.0745 3.10958C37.3328 3.10958 38.1834 4.12801 38.1834 5.76936C38.1834 7.40577 37.3328 8.42914 36.0745 8.42914ZM37.4074 5.76936C37.4074 6.9806 36.8812 7.67273 36.0745 7.67273C35.2678 7.67273 34.7372 6.9806 34.7372 5.76936C34.7372 4.55812 35.2678 3.86598 36.0745 3.86598C36.8812 3.86598 37.4074 4.55812 37.4074 5.76936Z" fill="white"/>
<path d="M43.003 8.34015H43.7791L45.0506 3.19857H44.2964L43.3845 7.38105H43.367L42.3322 3.19857H41.5956L40.5653 7.38105H40.5478L39.6358 3.19857H38.8773L40.1532 8.34015H40.9292L41.9552 4.36037H41.9727L43.003 8.34015Z" fill="white"/>
<path d="M46.6915 3.19857H45.9725V8.34015H46.7354V5.31452C46.7354 4.44441 47.2045 3.87093 47.9235 3.87093C48.625 3.87093 48.9714 4.32576 48.9714 5.15632V8.34015H49.7343V5.00306C49.7343 3.83632 49.1556 3.10958 48.1559 3.10958C47.45 3.10958 46.9633 3.46553 46.7091 4.01924H46.6915V3.19857Z" fill="white"/>
<path d="M51.042 1.2062V8.34015H51.8049V1.2062H51.042Z" fill="white"/>
<path fill-rule="evenodd" clip-rule="evenodd" d="M52.911 5.76936C52.911 7.40577 53.7615 8.42914 55.0243 8.42914C56.2826 8.42914 57.1332 7.40577 57.1332 5.76936C57.1332 4.12801 56.2826 3.10958 55.0243 3.10958C53.7615 3.10958 52.911 4.12801 52.911 5.76936ZM55.0242 7.67273C55.831 7.67273 56.3571 6.9806 56.3571 5.76936C56.3571 4.55812 55.831 3.86598 55.0242 3.86598C54.2175 3.86598 53.687 4.55812 53.687 5.76936C53.687 6.9806 54.2175 7.67273 55.0242 7.67273Z" fill="white"/>
<path fill-rule="evenodd" clip-rule="evenodd" d="M59.5326 8.42914C58.625 8.42914 58.0156 7.81116 58.0156 6.88666C58.0156 6.00666 58.6163 5.45295 59.6685 5.38374L60.9751 5.29969V4.86958C60.9751 4.24171 60.6068 3.86598 59.9754 3.86598C59.3879 3.86598 59.0196 4.17744 58.9232 4.68171H58.1866C58.2392 3.79182 58.9144 3.10958 59.993 3.10958C61.0628 3.10958 61.738 3.76216 61.738 4.78553V8.34015H61.0145V7.4552H60.997C60.7252 8.04352 60.1464 8.42914 59.5326 8.42914ZM60.9751 6.38734C60.9751 7.12891 60.4226 7.69745 59.7036 7.69745C59.1555 7.69745 58.7916 7.3761 58.7916 6.88666C58.7916 6.40217 59.1424 6.09565 59.7562 6.05116L60.9751 5.96711V6.38734Z" fill="white"/>
<path fill-rule="evenodd" clip-rule="evenodd" d="M62.7826 5.76936C62.7826 7.38105 63.5718 8.42914 64.7337 8.42914C65.3914 8.42914 65.9131 8.06329 66.2069 7.47003H66.22V8.34015H66.9478V1.2062H66.1849V4.03407H66.1674C65.8956 3.47048 65.3694 3.10958 64.7162 3.10958C63.5674 3.10958 62.7826 4.15767 62.7826 5.76936ZM64.8784 3.86598C64.0717 3.86598 63.5631 4.60756 63.5631 5.76936C63.5631 6.9361 64.0717 7.67273 64.8784 7.67273C65.6632 7.67273 66.1893 6.92127 66.1893 5.76936C66.1893 4.62239 65.6632 3.86598 64.8784 3.86598Z" fill="white"/>
<path fill-rule="evenodd" clip-rule="evenodd" d="M72.3079 8.42914C71.0452 8.42914 70.1946 7.40577 70.1946 5.76936C70.1946 4.12801 71.0452 3.10958 72.3079 3.10958C73.5663 3.10958 74.4168 4.12801 74.4168 5.76936C74.4168 7.40577 73.5663 8.42914 72.3079 8.42914ZM73.6408 5.76936C73.6408 6.9806 73.1147 7.67273 72.3079 7.67273C71.5012 7.67273 70.9707 6.9806 70.9707 5.76936C70.9707 4.55812 71.5012 3.86598 72.3079 3.86598C73.1147 3.86598 73.6408 4.55812 73.6408 5.76936Z" fill="white"/>
<path d="M76.2025 3.19857H75.4834V8.34015H76.2463V5.31452C76.2463 4.44441 76.7154 3.87093 77.4345 3.87093C78.136 3.87093 78.4824 4.32576 78.4824 5.15632V8.34015H79.2453V5.00306C79.2453 3.83632 78.6665 3.10958 77.6669 3.10958C76.961 3.10958 76.4743 3.46553 76.22 4.01924H76.2025V3.19857Z" fill="white"/>
<path d="M83.6627 1.95766H82.8998V3.19857H82.2202V3.90553H82.8998V7.00531C82.8998 7.99408 83.2243 8.3797 84.0617 8.3797C84.2414 8.3797 84.4519 8.36487 84.544 8.34015V7.61835C84.4914 7.62824 84.316 7.64307 84.2283 7.64307C83.8381 7.64307 83.6627 7.43048 83.6627 6.96082V3.90553H84.5484V3.19857H83.6627V1.95766Z" fill="white"/>
<path d="M85.6982 1.2062V8.34015H86.4611V5.34419C86.4611 4.4543 86.9303 3.87093 87.6888 3.87093C88.4034 3.87093 88.7673 4.36037 88.7673 5.1761V8.34015H89.5302V5.01789C89.5302 3.87093 88.9252 3.10958 87.9255 3.10958C87.2328 3.10958 86.733 3.44576 86.4787 4.01924H86.4611V1.2062H85.6982Z" fill="white"/>
<path fill-rule="evenodd" clip-rule="evenodd" d="M94.5735 6.86689H93.8237C93.6966 7.35138 93.2713 7.68262 92.6926 7.68262C91.8727 7.68262 91.3597 7.03498 91.3597 6.05116V6.00172H94.6305V5.67542C94.6305 4.11812 93.872 3.10958 92.64 3.10958C91.3816 3.10958 90.5749 4.19228 90.5749 5.78913C90.5749 7.40577 91.3685 8.42914 92.675 8.42914C93.6703 8.42914 94.442 7.76666 94.5735 6.86689ZM92.6268 3.85609C91.9121 3.85609 91.4123 4.47407 91.3641 5.32936H93.8413C93.8237 4.46913 93.3458 3.85609 92.6268 3.85609Z" fill="white"/>
<path fill-rule="evenodd" clip-rule="evenodd" d="M35.3018 25.8287L34.197 22.1478H29.5933L28.4884 25.8287H26.5382L30.8991 12.2094H32.9247L37.2856 25.8287H35.3018ZM30.0704 20.4489L31.87 14.4745H31.9202L33.7198 20.4489H30.0704Z" fill="white"/>
<path fill-rule="evenodd" clip-rule="evenodd" d="M47.1019 20.8642C47.1019 17.7213 45.6287 15.7393 43.3939 15.7393C42.1216 15.7393 41.1088 16.466 40.5898 17.608H40.5564V15.8997H38.807V29.1132H40.6149V24.1959H40.6568C41.159 25.3002 42.1634 25.9986 43.4274 25.9986C45.6371 25.9986 47.1019 24.0071 47.1019 20.8642ZM42.9168 24.2714C44.3481 24.2714 45.2437 22.9501 45.2437 20.8642C45.2437 18.7878 44.3481 17.457 42.9168 17.457C41.5357 17.457 40.6066 18.8161 40.6066 20.8642C40.6066 22.9312 41.5273 24.2714 42.9168 24.2714Z" fill="white"/>
<path fill-rule="evenodd" clip-rule="evenodd" d="M53.4864 15.7393C55.7213 15.7393 57.1944 17.7213 57.1944 20.8642C57.1944 24.0071 55.7296 25.9986 53.5199 25.9986C52.256 25.9986 51.2515 25.3002 50.7493 24.1959H50.7075V29.1132H48.8995V15.8997H50.6489V17.608H50.6824C51.2013 16.466 52.2141 15.7393 53.4864 15.7393ZM55.3362 20.8642C55.3362 22.9501 54.4406 24.2714 53.0093 24.2714C51.6198 24.2714 50.6991 22.9312 50.6991 20.8642C50.6991 18.8161 51.6282 17.457 53.0093 17.457C54.4406 17.457 55.3362 18.7878 55.3362 20.8642Z" fill="white"/>
<path d="M64.4056 22.0346H62.5558C62.673 24.4979 64.4809 26.0552 67.1594 26.0552C70.0221 26.0552 71.8217 24.4602 71.8217 21.9119C71.8217 19.9204 70.7921 18.7972 68.3145 18.1366L66.9837 17.7685C65.4268 17.3343 64.7906 16.768 64.7906 15.8053C64.7906 14.5972 65.7867 13.7667 67.2431 13.7667C68.6996 13.7667 69.6956 14.5878 69.8044 15.9469H71.6291C71.5706 13.5968 69.8212 11.9829 67.2682 11.9829C64.6902 11.9829 62.8739 13.5968 62.8739 15.9469C62.8739 17.844 63.9034 19.0143 66.1215 19.6184L67.6868 20.0431C69.252 20.4773 69.9132 21.1096 69.9132 22.1667C69.9132 23.3842 68.8167 24.2714 67.2933 24.2714C65.703 24.2714 64.5395 23.3842 64.4056 22.0346Z" fill="white"/>
<path d="M76.0383 13.5496H74.2219V15.8997H72.9413V17.5137H74.2219V23.2143C74.2219 25.1303 74.9167 25.8948 76.6995 25.8948C77.1013 25.8948 77.5031 25.857 77.704 25.8004V24.1865C77.5868 24.2148 77.2938 24.2337 77.1097 24.2337C76.3731 24.2337 76.0383 23.8467 76.0383 22.9878V17.5137H77.7123V15.8997H76.0383V13.5496Z" fill="white"/>
<path fill-rule="evenodd" clip-rule="evenodd" d="M78.9994 20.8642C78.9994 24.0638 80.6567 26.0175 83.1761 26.0175C85.6956 26.0175 87.3529 24.0638 87.3529 20.8642C87.3529 17.6741 85.6872 15.7204 83.1761 15.7204C80.665 15.7204 78.9994 17.6741 78.9994 20.8642ZM83.1761 24.3375C84.5991 24.3375 85.5114 23.0728 85.5114 20.8642C85.5114 18.6651 84.5907 17.4004 83.1761 17.4004C81.7615 17.4004 80.8408 18.6651 80.8408 20.8642C80.8408 23.0728 81.7615 24.3375 83.1761 24.3375Z" fill="white"/>
<path d="M89.1589 15.8997H90.8831V17.5892H90.925C91.2179 16.4283 92.0047 15.7393 93.0427 15.7393C93.3021 15.7393 93.5281 15.7865 93.6621 15.8148V17.7119C93.5198 17.6458 93.2017 17.5986 92.8501 17.5986C91.6867 17.5986 90.9668 18.4763 90.9668 19.8826V25.8287H89.1589V15.8997Z" fill="white"/>
<path fill-rule="evenodd" clip-rule="evenodd" d="M101.026 22.9194H102.742C102.491 24.7315 100.967 26.0245 98.9501 26.0245C96.3637 26.0245 94.7984 24.052 94.7984 20.9185C94.7984 17.8039 96.3888 15.7274 98.8747 15.7274C101.319 15.7274 102.842 17.6717 102.842 20.6825V21.3809H96.6231V21.5036C96.6231 23.2308 97.5439 24.3729 98.9919 24.3729C100.021 24.3729 100.783 23.7877 101.026 22.9194ZM96.6231 20.073L101.026 20.0261C101.026 19.6078 100.871 18.8323 100.506 18.421C100.141 18.0098 99.6041 17.6976 98.8747 17.6976C97.4059 17.6976 96.6231 18.8041 96.6231 20.073Z" fill="white"/>
</svg>
