<svg width="15" height="20" viewBox="0 0 15 20" fill="none" xmlns="http://www.w3.org/2000/svg">
<path fill-rule="evenodd" clip-rule="evenodd" d="M13.2778 0H2.16666C1.40277 0 0.784715 0.9 0.784715 2L0.777771 20L3.55555 16H13.2778C14.0417 16 14.6667 15.1 14.6667 14V2C14.6667 0.9 14.0417 0 13.2778 0ZM4.24999 7H11.1945C11.5764 7 11.8889 7.45 11.8889 8C11.8889 8.55 11.5764 9 11.1945 9H4.24999C3.86804 9 3.55554 8.55 3.55554 8C3.55554 7.45 3.86804 7 4.24999 7ZM8.41664 12H4.24998C3.86804 12 3.55554 11.55 3.55554 11C3.55554 10.45 3.86804 10 4.24998 10H8.41664C8.79858 10 9.11108 10.45 9.11108 11C9.11108 11.55 8.79858 12 8.41664 12ZM11.1945 6H4.24999C3.86804 6 3.55554 5.55 3.55554 5C3.55554 4.45 3.86804 4 4.24999 4H11.1945C11.5764 4 11.8889 4.45 11.8889 5C11.8889 5.55 11.5764 6 11.1945 6Z" fill="#8B96A5"/>
</svg>
