<svg width="21" height="23" viewBox="0 0 21 23" fill="none" xmlns="http://www.w3.org/2000/svg">
<path fill-rule="evenodd" clip-rule="evenodd" d="M6.29989 17.9092C5.14491 17.9092 4.21043 18.872 4.21043 20.0487C4.21043 21.2255 5.14491 22.1883 6.29989 22.1883C7.45487 22.1883 8.39985 21.2255 8.39985 20.0487C8.39985 18.872 7.45487 17.9092 6.29989 17.9092ZM0 1.86227C0 2.45066 0.472492 2.93207 1.04998 2.93207H2.09996L5.8799 11.0518L4.46242 13.6621C3.69593 15.0956 4.70392 16.8394 6.29989 16.8394H17.8497C18.4272 16.8394 18.8997 16.358 18.8997 15.7696C18.8997 15.1812 18.4272 14.6998 17.8497 14.6998H6.29989L7.45487 12.5602H15.2772C16.0647 12.5602 16.7577 12.1216 17.1147 11.4583L20.8736 4.51536C21.2621 3.8093 20.7581 2.93207 19.9601 2.93207H4.42042L3.71693 1.40226C3.54894 1.02783 3.17094 0.79248 2.77195 0.79248H1.04998C0.472492 0.79248 0 1.27389 0 1.86227ZM16.7997 17.9092C15.6447 17.9092 14.7102 18.872 14.7102 20.0487C14.7102 21.2255 15.6447 22.1883 16.7997 22.1883C17.9547 22.1883 18.8997 21.2255 18.8997 20.0487C18.8997 18.872 17.9547 17.9092 16.7997 17.9092Z" fill="#8B96A5"/>
</svg>
